<?xml version="1.0" encoding="UTF-8"?>
<svg version="1.1" xmlns="http://www.w3.org/2000/svg" width="1024" height="1024">
<path d="M0 0 C337.92 0 675.84 0 1024 0 C1024 337.92 1024 675.84 1024 1024 C686.08 1024 348.16 1024 0 1024 C0 686.08 0 348.16 0 0 Z " fill="#0A1B2A" transform="translate(0,0)"/>
<path d="M0 0 C1.5623362 -0.01052147 1.5623362 -0.01052147 3.15623474 -0.02125549 C4.85436813 -0.00978989 4.85436813 -0.00978989 6.58680725 0.00190735 C7.78734238 -0.00174332 8.9878775 -0.00539398 10.22479248 -0.00915527 C13.51005212 -0.01586513 16.794941 -0.00915677 20.08017039 0.00417686 C23.52334672 0.01551637 26.96650885 0.01138185 30.40969849 0.00942993 C36.19241707 0.00854763 41.97501828 0.01961301 47.75770569 0.03804016 C54.43501672 0.05919685 61.11215574 0.06271941 67.7894935 0.0564782 C74.22183299 0.05077466 80.65411215 0.05644251 87.08644295 0.06765175 C89.81955142 0.07228566 92.55262285 0.07317682 95.28573418 0.0710659 C99.10624409 0.07069502 102.92649282 0.08332275 106.7469635 0.0995636 C107.8770282 0.09708618 109.0070929 0.09460876 110.17140198 0.09205627 C122.07151173 0.1727838 122.07151173 0.1727838 126.54408264 3.8742218 C129.0653845 7.05902415 128.85735521 9.47982502 128.85907459 13.47568893 C128.86208224 14.78572757 128.86508989 16.09576622 128.86818868 17.445503 C128.86650089 18.91325881 128.86472982 20.38101452 128.86288452 21.84877014 C128.86458549 23.39714557 128.86673462 24.94552057 128.86929578 26.49389482 C128.87390429 29.87094772 128.8753114 33.24798227 128.87433052 36.62503815 C128.87274179 42.11887334 128.87793115 47.61269023 128.88395691 53.10652161 C128.8920798 61.08300013 128.89701715 69.05947544 128.90024757 77.03595734 C128.90573703 89.63963166 128.92262723 102.24327882 128.94158936 114.84693909 C128.94794651 119.15615459 128.95425488 123.46537016 128.96056652 127.77458572 C128.96215028 128.85159006 128.96373405 129.9285944 128.9653658 131.03823523 C128.98331234 143.30550224 128.99953388 155.57277117 129.01454163 167.84004211 C129.0159175 168.9618084 129.01729337 170.08357469 129.01871093 171.2393339 C129.04064229 189.41902444 129.05139713 207.59870802 129.05891237 225.77840945 C129.0669785 244.43051774 129.09025308 263.08256621 129.12686604 281.73464036 C129.1489148 293.24623311 129.15854843 304.75770294 129.15236571 316.26931575 C129.14919531 324.15695018 129.16049347 332.04447952 129.18326012 339.93208143 C129.19594988 344.48571278 129.20207136 349.03911006 129.19084358 353.59275055 C129.18069964 357.76030676 129.18887319 361.92740789 129.21170654 366.09491017 C129.21671425 367.60368847 129.21494742 369.11250738 129.20577387 370.6212661 C129.19428861 372.67118968 129.20737134 374.71955712 129.22656727 376.76939011 C129.22754408 377.90822639 129.22852089 379.04706268 129.22952729 380.22040915 C129.97808437 384.922697 132.25241772 388.0743496 135.79408264 391.1867218 C139.08639339 393.20458968 141.77801065 393.50043222 145.54774094 393.50730038 C146.54564832 393.51154142 147.54355571 393.51578247 148.57170272 393.52015203 C150.22064949 393.51957283 150.22064949 393.51957283 151.90290833 393.51898193 C153.06842861 393.52250878 154.2339489 393.52603562 155.43478799 393.52966934 C158.67535183 393.53851681 161.91588746 393.54291914 165.15646124 393.54551232 C168.64942615 393.54940395 172.14237546 393.55904147 175.6353302 393.56806946 C181.69050021 393.58301537 187.74566898 393.59455677 193.80084991 393.60401726 C202.56329896 393.61788571 211.32571912 393.63907315 220.08814743 393.66244579 C234.31401224 393.7003762 248.53988229 393.73533736 262.76576233 393.76704407 C264.04343705 393.76989481 264.04343705 393.76989481 265.34692338 393.77280314 C277.43075563 393.79962613 289.51459193 393.82350196 301.59843257 393.84618814 C302.87428814 393.84858409 302.87428814 393.84858409 304.17591858 393.85102844 C305.02545332 393.85262191 305.87498806 393.85421537 306.75026628 393.85585713 C320.91738179 393.88262855 335.08446658 393.91703009 349.25154901 393.95768219 C357.99087515 393.98245259 366.73016825 394.00078188 375.46952394 394.0108378 C381.45976483 394.01823159 387.44996137 394.03276213 393.44017288 394.05290204 C396.8961827 394.06428743 400.35212099 394.07242793 403.80815125 394.07189369 C407.556299 394.07297443 411.30421429 394.08620677 415.05232239 394.10247803 C416.14269735 394.09986117 417.23307231 394.09724432 418.35648894 394.09454817 C431.32074277 394.18260343 431.32074277 394.18260343 435.64305115 398.11187744 C437.06203219 401.06101007 437.12413199 403.29865257 437.14808655 406.57173157 C437.17296646 408.46738609 437.17296646 408.46738609 437.198349 410.40133667 C437.20181795 411.7894333 437.20507714 413.17753047 437.20814514 414.56562805 C437.22233582 416.01351294 437.23791815 417.46138478 437.25480652 418.90924072 C437.29663113 422.78453187 437.32109249 426.65974912 437.34204102 430.53520203 C437.38074058 436.92635511 437.45076335 443.31730945 437.51345825 449.7082634 C437.53627283 452.09715991 437.55707841 454.48606799 437.57765198 456.87498474 C437.66052228 466.0439588 437.82400499 475.20510034 438.11439514 484.37031555 C438.1608165 485.88946312 438.1608165 485.88946312 438.20817566 487.43930054 C438.32326411 491.1395038 438.44011213 494.83927301 438.58833313 498.53831482 C438.68569901 500.97295357 438.76491226 503.40759009 438.84095764 505.8429718 C438.87512787 506.53035934 438.9092981 507.21774689 438.94450378 507.92596436 C439.06738315 512.51233686 438.27290307 515.55055851 435.73158264 519.3742218 C431.62453213 522.51505296 428.46843144 522.74984996 423.36798859 522.75174522 C422.63265154 522.75610555 421.8973145 522.76046587 421.13969451 522.76495832 C418.66814359 522.7759333 416.19714834 522.76548233 413.7256012 522.75517273 C411.93880791 522.75862841 410.15201676 522.76339237 408.36523008 522.76935446 C403.44924065 522.78190645 398.53342537 522.77567501 393.61743522 522.76639581 C388.31811563 522.75962283 383.01882652 522.77007784 377.71951294 522.77833557 C367.33578164 522.79169383 356.9521153 522.78878585 346.56838143 522.78009765 C338.13127554 522.77332974 329.6941879 522.77240051 321.25708008 522.7756691 C320.05746973 522.7761288 318.85785937 522.7765885 317.62189719 522.77706213 C315.18511251 522.77802128 312.74832784 522.77899392 310.31154317 522.7799799 C287.44767429 522.78853992 264.58384147 522.77869005 241.71997851 522.7625788 C222.09052771 522.74917507 202.46113013 522.75150299 182.8316803 522.76533508 C160.05109229 522.78138008 137.2705359 522.78771589 114.48994303 522.77849829 C112.06199042 522.77754262 109.63403782 522.77659951 107.20608521 522.7756691 C106.01140396 522.77520627 104.81672271 522.77474344 103.585839 522.77426659 C95.1562987 522.77167346 86.72677841 522.77605466 78.29724121 522.78310776 C68.02813655 522.79151095 57.7591007 522.7892675 47.49000394 522.77326553 C42.24792147 522.76536691 37.00595384 522.76231827 31.76387215 522.77221298 C26.96866683 522.78112748 22.17368323 522.77628076 17.37849814 522.76028033 C15.64034894 522.75691873 13.90218117 522.75865737 12.16404384 522.76590769 C9.80748577 522.77498644 7.45169428 522.76571865 5.0951767 522.75174522 C3.12906331 522.75101464 3.12906331 522.75101464 1.12323046 522.75026929 C-2.53808447 522.34432258 -4.34268046 521.55991814 -7.26841736 519.3742218 C-7.85864071 518.99002909 -8.44886407 518.60583638 -9.05697298 518.21000147 C-11.10552374 515.1057006 -10.6800368 511.5999554 -10.6515274 508.00174713 C-10.65648692 507.13304869 -10.66144644 506.26435024 -10.66655624 505.3693276 C-10.6796026 502.43213366 -10.67109918 499.49538762 -10.66282654 496.55818176 C-10.66771116 494.44170478 -10.67389895 492.32523047 -10.68128443 490.20876074 C-10.69776134 484.37228354 -10.69535032 478.53594073 -10.68990946 472.69944835 C-10.6872488 466.41306933 -10.7017528 460.12672693 -10.71400452 453.84036255 C-10.73510101 441.51725252 -10.73961578 429.19419817 -10.73781663 416.87107337 C-10.73644509 406.85972192 -10.74025371 396.84838478 -10.7477417 386.83703613 C-10.74879202 385.40017989 -10.74983964 383.96332365 -10.75088456 382.52646741 C-10.75140391 381.8132519 -10.75192325 381.10003639 -10.75245833 380.36520829 C-10.75297847 379.65070979 -10.75349862 378.93621129 -10.75403452 378.20006132 C-10.75455851 377.48439396 -10.7550825 376.76872661 -10.75562237 376.03137236 C-10.77021133 355.8951087 -10.77848561 335.75885031 -10.77387238 315.62258148 C-10.77361444 314.48328107 -10.77361444 314.48328107 -10.7733513 313.32096448 C-10.77246237 309.47109106 -10.77151756 305.62121765 -10.77055329 301.77134424 C-10.77026674 300.62438809 -10.77026674 300.62438809 -10.7699744 299.4542611 C-10.76958731 297.90797799 -10.76919698 296.36169488 -10.76880343 294.81541177 C-10.76283158 270.74789903 -10.77827754 246.6804824 -10.81040955 222.61299133 C-10.8464546 195.59144319 -10.86582361 168.56995599 -10.86087084 141.54838228 C-10.86040084 138.66939068 -10.85999059 135.79039908 -10.85961914 132.91140747 C-10.85951675 132.20249304 -10.85941437 131.49357862 -10.85930888 130.76318194 C-10.85811216 120.04383504 -10.8701058 109.32455381 -10.88876343 98.60522461 C-10.9099611 86.42045495 -10.91342839 74.23586709 -10.89446384 62.05108345 C-10.88526919 55.82897338 -10.88427664 49.60713886 -10.90481949 43.38504982 C-10.92339341 37.69663796 -10.91917979 32.00872993 -10.89627367 26.32033807 C-10.89205335 24.25511145 -10.89640151 22.18984721 -10.90986961 20.12466019 C-10.92685492 17.33138388 -10.9134767 14.53990206 -10.89203644 11.74669647 C-10.91045273 10.52526053 -10.91045273 10.52526053 -10.92924106 9.27914912 C-10.89286184 7.0327363 -10.89286184 7.0327363 -10.26841736 3.3742218 C-6.91684867 0.55861086 -4.31372569 -0.00080219 0 0 Z " fill="#FDFDFC" transform="translate(280.26841735839844,251.6257781982422)"/>
<path d="M0 0 C3.51910913 1.76737481 6.7697452 3.7504572 10 6 C10.63808594 6.44085938 11.27617188 6.88171875 11.93359375 7.3359375 C23.08070938 15.9259197 28.04394553 30.3312235 29.80859375 43.8125 C30.56177292 56.35523886 25.28969889 69.40959026 17.16015625 78.78515625 C5.91317408 90.31687215 -7.04815758 94.72064202 -22.85546875 95.03369141 C-32.02832693 94.8895823 -39.66233952 91.23228761 -47 86 C-47.68707031 85.52046875 -48.37414062 85.0409375 -49.08203125 84.546875 C-56.46593868 78.77956269 -61.65130328 70.02959124 -65.57421875 61.62890625 C-66.77840355 58.69432585 -66.77840355 58.69432585 -70 58 C-72.05776 57.87587917 -74.11921113 57.81003884 -76.18041992 57.77539062 C-77.45572067 57.75287231 -78.73102142 57.730354 -80.04496765 57.70715332 C-85.88244148 57.6312957 -91.72003086 57.57845951 -97.55786133 57.54003906 C-100.63590438 57.51778737 -103.71273037 57.47605319 -106.7902832 57.41699219 C-110.51567602 57.3456515 -114.23992641 57.30917159 -117.96596718 57.29692078 C-119.38015981 57.28656252 -120.79432083 57.26423858 -122.20812035 57.22932434 C-131.55874082 56.89346326 -131.55874082 56.89346326 -139.52832031 61.14404297 C-140.71453267 62.40266067 -141.87353635 63.68763651 -143 65 C-144.08495205 66.07167353 -145.17662329 67.13659703 -146.27563477 68.19384766 C-147.3333078 69.26487221 -148.3885137 70.33833803 -149.44140625 71.4140625 C-150.61379841 72.5990908 -151.78632854 73.78398262 -152.95898438 74.96875 C-154.76654459 76.80113191 -156.57242694 78.63511006 -158.37573242 80.47167969 C-160.14312248 82.26948006 -161.91685746 84.06083175 -163.69140625 85.8515625 C-164.22077286 86.39438873 -164.75013947 86.93721497 -165.29554749 87.49649048 C-168.92694127 91.1517453 -172.74011963 94.09801719 -177 97 C-173.32073659 102.3612124 -169.21219385 106.98059474 -164.625 111.5625 C-164.09624268 112.09190186 -163.56748535 112.62130371 -163.02270508 113.16674805 C-160.27121398 115.88149135 -157.46401874 118.47339771 -154.515625 120.97265625 C-147.69254342 126.88288255 -141.47106841 133.46357238 -135.125 139.875 C-132.5054633 142.52108606 -129.88265329 145.16386413 -127.2578125 147.8046875 C-126.65889191 148.41190643 -126.05997131 149.01912537 -125.44290161 149.64474487 C-119.0621069 156.06354188 -114.47930221 155.21368899 -105.6875 155.25 C-104.45064453 155.270625 -103.21378906 155.29125 -101.93945312 155.3125 C-100.74642578 155.31765625 -99.55339844 155.3228125 -98.32421875 155.328125 C-97.23197998 155.3374707 -96.13974121 155.34681641 -95.0144043 155.35644531 C-91.57551983 154.94980635 -89.75745361 154.06516186 -87 152 C-85.63988391 150.01811655 -84.30208796 148.02048131 -83 146 C-82.34 146 -81.68 146 -81 146 C-80.7525 145.443125 -80.505 144.88625 -80.25 144.3125 C-76.81481415 137.95740618 -72.13295139 134.54967793 -66 131 C-65.16984375 130.50757813 -64.3396875 130.01515625 -63.484375 129.5078125 C-52.60544371 124.00618153 -38.33774141 123.8593644 -26.79199219 127.59765625 C-14.34205761 132.39668317 -4.29978779 142.59334451 1.20703125 154.640625 C5.88291292 165.94204924 7.35626753 180.25604167 3 192 C-3.36949166 206.94738371 -12.05713505 214.59866947 -27 221 C-38.81937858 224.98027019 -52.42319042 224.11986486 -63.68359375 218.7109375 C-75.98490174 211.70836644 -84.31798697 202.25022337 -88.78515625 188.6796875 C-89.92892017 186.70905294 -89.92892017 186.70905294 -92.65380859 186.39672852 C-96.0685691 185.99187036 -99.31659226 185.91903463 -102.75390625 185.97265625 C-104.02041016 185.98490234 -105.28691406 185.99714844 -106.59179688 186.00976562 C-109.24289252 186.04497447 -111.89393961 186.08404856 -114.54492188 186.12695312 C-115.81013672 186.13791016 -117.07535156 186.14886719 -118.37890625 186.16015625 C-120.10475952 186.18541382 -120.10475952 186.18541382 -121.86547852 186.21118164 C-128.93740677 185.73472569 -132.3535989 182.05283575 -137.08178711 177.21118164 C-137.77513657 176.51345139 -138.46848602 175.81572113 -139.18284607 175.09684753 C-140.68503413 173.58325723 -142.1837467 172.06621146 -143.67936516 170.54612923 C-146.04769083 168.13947992 -148.42529189 165.74235633 -150.80555725 163.34751892 C-156.71541969 157.3975598 -162.60891505 151.43147175 -168.50299072 145.46588135 C-173.48460488 140.42505709 -178.47232149 135.39042395 -183.46832466 130.36385918 C-185.8087491 128.00400899 -188.13994092 125.63529177 -190.47093201 123.26612854 C-191.90978047 121.81637956 -193.34905346 120.36705175 -194.78881836 118.91821289 C-195.7545578 117.92922501 -195.7545578 117.92922501 -196.73980713 116.92025757 C-202.22397207 111.43418137 -206.67141842 108.64521967 -214.64794922 108.56762695 C-216.59929276 108.53793571 -216.59929276 108.53793571 -218.59005737 108.50764465 C-219.99493261 108.50087638 -221.39980942 108.49442934 -222.8046875 108.48828125 C-224.25344351 108.47142148 -225.70218501 108.4532695 -227.15090942 108.43388367 C-230.9483995 108.38651792 -234.74583071 108.35662219 -238.54351807 108.33044434 C-242.42496358 108.30057065 -246.30620657 108.25406385 -250.1875 108.20898438 C-257.79156588 108.12310425 -265.39564672 108.05569151 -273 108 C-273.02886537 103.68751391 -273.04675255 99.37505238 -273.0625 95.0625 C-273.07087891 93.83080078 -273.07925781 92.59910156 -273.08789062 91.33007812 C-273.09111328 90.16025391 -273.09433594 88.99042969 -273.09765625 87.78515625 C-273.10289307 86.70113525 -273.10812988 85.61711426 -273.11352539 84.50024414 C-273 82 -273 82 -272 81 C-269.89011253 80.8865702 -267.77644244 80.84312976 -265.66357422 80.82641602 C-265.00167587 80.819729 -264.33977753 80.81304199 -263.65782166 80.80615234 C-262.21513612 80.79206877 -260.77242786 80.78018534 -259.3297081 80.77020454 C-257.04248681 80.75381884 -254.75543154 80.730578 -252.46829224 80.70530701 C-245.96332065 80.63449395 -239.45827797 80.57462261 -232.953125 80.52319336 C-228.97722498 80.49127737 -225.00151 80.44996001 -221.02576065 80.40299797 C-219.51322918 80.38704075 -218.00065501 80.37469038 -216.48806381 80.36609077 C-214.36278442 80.35384231 -212.23793365 80.32965079 -210.11279297 80.30297852 C-208.90557587 80.29267105 -207.69835876 80.28236359 -206.45455933 80.27174377 C-201.4117158 79.87506182 -196.49155421 79.07010999 -192.75390625 75.4609375 C-192.23078857 74.96682373 -191.7076709 74.47270996 -191.16870117 73.96362305 C-190.37363159 73.17725464 -190.37363159 73.17725464 -189.5625 72.375 C-188.99829346 71.83593018 -188.43408691 71.29686035 -187.8527832 70.74145508 C-184.1594961 67.19630153 -180.53971933 63.5754694 -176.95458984 59.92114258 C-175.11446869 58.11250988 -173.21774795 56.44089263 -171.25 54.7734375 C-166.99147394 51.07099074 -163.1390504 47.07931717 -159.3125 42.9375 C-158.67505859 42.25623047 -158.03761719 41.57496094 -157.38085938 40.87304688 C-154.57935096 37.86337685 -151.85086258 34.84898108 -149.29296875 31.62890625 C-147.0356004 29.04081613 -146.13580768 28.13727417 -143 27 C-140.46807425 26.8569973 -138.05505644 26.8216123 -135.52856445 26.88745117 C-133.98082175 26.90990597 -132.43307688 26.93221248 -130.8853302 26.95439148 C-129.6584999 26.97731042 -129.6584999 26.97731042 -128.40688515 27.00069237 C-124.05864595 27.07296298 -119.7100638 27.08288342 -115.36132812 27.10351562 C-109.834625 27.13309351 -104.31003454 27.18095877 -98.78442383 27.2980957 C-94.3115321 27.39128137 -89.84213231 27.42039711 -85.36833763 27.40770912 C-83.67016577 27.4144948 -81.97191343 27.44441027 -80.27459145 27.49855614 C-71.36765971 28.03722558 -71.36765971 28.03722558 -63.44466782 24.73550797 C-61.09980768 22.09851204 -59.50042165 19.3826383 -57.80680847 16.27607727 C-47.26928263 -2.83040216 -19.08522103 -8.23223589 0 0 Z " fill="#1698E9" transform="translate(720,382)"/>
<path d="M0 0 C9.19827791 6.4336749 15.86608332 16.96337281 18 28 C18.39861888 31.73271537 18.52538721 35.43501989 18.5625 39.1875 C18.58449463 40.55878052 18.58449463 40.55878052 18.60693359 41.95776367 C18.42546801 54.09300129 12.50333321 65.49747325 4.25 74.25 C-4.66917242 82.59699909 -16.1580903 87.90888934 -28.5 88.4375 C-30.00377118 88.33780246 -31.5045276 88.1866271 -33 88 C-34.02222656 87.90203125 -35.04445313 87.8040625 -36.09765625 87.703125 C-48.87958003 85.80096723 -59.80566968 78.81249402 -67.52441406 68.4699707 C-69.45725174 65.70149946 -71.24910699 62.88843857 -73 60 C-73.58136719 59.07960938 -74.16273438 58.15921875 -74.76171875 57.2109375 C-76 55 -76 55 -76 53 C-86.40547833 52.86063457 -96.8107326 52.75419413 -107.21695614 52.68912697 C-112.0496779 52.65788875 -116.88175851 52.61555438 -121.71411133 52.54736328 C-126.38259188 52.48190114 -131.05045796 52.44623753 -135.71936226 52.43073654 C-137.49552641 52.41969814 -139.27165906 52.3981424 -141.04755974 52.36561966 C-153.49013953 51.92487395 -153.49013953 51.92487395 -164.33677673 57.37138367 C-164.88564041 57.90882706 -165.43450409 58.44627045 -166 59 C-166.91088379 59.84973389 -167.82176758 60.69946777 -168.76025391 61.57495117 C-169.49937012 62.37521729 -170.23848633 63.1754834 -171 64 C-172.61148434 65.60075871 -174.22347696 67.20100587 -175.8359375 68.80078125 C-177.68236349 70.63794865 -179.52871546 72.47519045 -181.375 74.3125 C-182.29539062 75.22451172 -183.21578125 76.13652344 -184.1640625 77.07617188 C-185.51757812 78.42485352 -185.51757812 78.42485352 -186.8984375 79.80078125 C-187.70974121 80.60684814 -188.52104492 81.41291504 -189.35693359 82.2434082 C-191.362815 84.33544653 -193.25906938 86.44212685 -195.14453125 88.63793945 C-199.78933304 93.98607546 -204.79192439 98.97603227 -209.7890625 103.9921875 C-210.29493267 104.50088505 -210.80080284 105.0095826 -211.32200241 105.53369522 C-213.98998857 108.21654677 -216.66073743 110.89660944 -219.33398438 113.57421875 C-222.08558134 116.3313367 -224.82774763 119.0976427 -227.56791115 121.86611748 C-229.68873437 124.00556815 -231.81623966 126.13827765 -233.94562912 128.26919937 C-234.95998096 129.28656905 -235.97184177 130.30642893 -236.98109818 131.32885361 C-238.38994509 132.75479043 -239.80926751 134.17035416 -241.22900391 135.58544922 C-242.03173737 136.39182831 -242.83447083 137.1982074 -243.66152954 138.02902222 C-248.27014606 141.91339062 -252.16202971 142.24809226 -258.08520508 142.22705078 C-258.77843872 142.22734283 -259.47167236 142.22763489 -260.18591309 142.22793579 C-262.46391574 142.22654897 -264.74158615 142.21101867 -267.01953125 142.1953125 C-268.6042208 142.19158006 -270.18891266 142.18873418 -271.77360535 142.18673706 C-275.93454413 142.17911877 -280.09534221 142.15948588 -284.25622559 142.1373291 C-288.50608416 142.11683172 -292.75596557 142.10772703 -297.00585938 142.09765625 C-305.33730399 142.0762382 -313.66863447 142.04212416 -322 142 C-322.02886338 137.52084672 -322.04675187 133.04171709 -322.0625 128.5625 C-322.07506836 126.6434082 -322.07506836 126.6434082 -322.08789062 124.68554688 C-322.09111328 123.47060547 -322.09433594 122.25566406 -322.09765625 121.00390625 C-322.10289307 119.87799072 -322.10812988 118.7520752 -322.11352539 117.59204102 C-322 115 -322 115 -321 114 C-319.19629154 113.89236244 -317.38842395 113.85373808 -315.58154297 113.84228516 C-313.84371048 113.82689194 -313.84371048 113.82689194 -312.07077026 113.81118774 C-310.1756218 113.80023575 -310.1756218 113.80023575 -308.2421875 113.7890625 C-306.26860245 113.76817971 -304.2950174 113.74727943 -302.32144356 113.72536278 C-297.44125456 113.67216951 -292.56105467 113.6281091 -287.68066406 113.59863281 C-284.94892338 113.58168848 -282.21746213 113.55694432 -279.48587036 113.52377319 C-276.91166523 113.49285883 -274.33729099 113.47339773 -271.76290894 113.46670532 C-263.77335836 113.35429578 -258.20931759 113.2584398 -252.36816406 107.32788086 C-251.49045045 106.23582245 -250.62356995 105.13500038 -249.765625 104.02734375 C-242.5154735 95.14938942 -234.42693875 87.16071657 -226.29882812 79.09301758 C-223.73502852 76.54763607 -221.1794835 73.99418074 -218.625 71.43945312 C-216.97443146 69.79379616 -215.32340594 68.14859738 -213.671875 66.50390625 C-212.91960632 65.7527504 -212.16733765 65.00159454 -211.39227295 64.22767639 C-207.29781885 60.16942984 -203.11417134 56.27499177 -198.74871826 52.50968933 C-195.15191011 49.40452196 -191.7123039 46.12821272 -188.25 42.875 C-187.50878906 42.18535156 -186.76757812 41.49570312 -186.00390625 40.78515625 C-182.36055864 37.36420329 -179.05329325 33.97141639 -176 30 C-170.36737273 24.5464049 -165.94730729 23.85377385 -158.3059082 23.88647461 C-157.4178952 23.88632858 -156.5298822 23.88618256 -155.61495972 23.8860321 C-152.67687546 23.88672932 -149.73885444 23.89451282 -146.80078125 23.90234375 C-144.76482681 23.90420861 -142.72887192 23.90563219 -140.69291687 23.90663147 C-135.33188643 23.91045131 -129.97088303 23.92027708 -124.60986328 23.93133545 C-119.1403032 23.94156101 -113.67073876 23.94613155 -108.20117188 23.95117188 C-97.46743603 23.96189979 -86.73372026 23.97896985 -76 24 C-75.70649658 23.23558594 -75.41299316 22.47117187 -75.1105957 21.68359375 C-73.79684934 18.50911583 -72.09354344 15.85724294 -70.1875 13 C-69.18783203 11.4840625 -69.18783203 11.4840625 -68.16796875 9.9375 C-63.92666565 4.19072534 -58.76328403 0.09965565 -53 -4 C-51.8553125 -4.8353125 -51.8553125 -4.8353125 -50.6875 -5.6875 C-33.01939797 -14.31610797 -15.67510362 -10.3096509 0 0 Z " fill="#1698E9" transform="translate(766,262)"/>
<path d="M0 0 C4.16301358 2.85843647 7.46973803 6.25197606 9.75 10.8125 C10.71902753 18.78621223 9.5777529 25.29327163 4.75 31.8125 C0.34346514 36.06270546 -4.67678582 37.68596154 -10.7265625 38.01171875 C-16.4416072 37.56053101 -20.73281202 35.03284685 -25.125 31.5 C-29.21416301 26.32841148 -30.78256355 21.5237439 -30.5390625 15.015625 C-29.81518668 9.49851742 -27.25076768 4.60810011 -23.25 0.8125 C-15.26811775 -3.72593485 -8.08222379 -4.66165717 0 0 Z " fill="#051524" transform="translate(711.25,410.1875)"/>
<path d="M0 0 C4.96914322 2.23515515 8.73409017 5.74923971 11.6484375 10.34765625 C13.46787733 15.85008337 13.19793714 21.47289276 11.5859375 26.97265625 C8.71972531 31.96541296 5.19149209 35.84790611 0.2109375 38.78515625 C-6.32477825 40.21982556 -12.56316973 39.83686706 -18.3515625 36.34765625 C-22.48666431 32.59438113 -25.69552743 28.7399675 -27.3515625 23.34765625 C-27.58910973 15.57646837 -26.12878206 9.4809296 -20.9140625 3.59765625 C-14.89624741 -1.68627895 -7.66107738 -2.12524904 0 0 Z " fill="#051523" transform="translate(744.3515625,281.65234375)"/>
<path d="M0 0 C5.35002766 3.77522113 8.04511415 8.47466053 9.3671875 14.80859375 C10.12415459 20.69229251 8.44460452 25.16557529 5.19921875 29.9453125 C1.99409804 33.7469197 -1.63435111 36.30623449 -6.57421875 37.21875 C-12.77682638 37.47854508 -19.36906971 36.35597947 -24.203125 32.265625 C-29.17807184 26.80767361 -30.83840548 21.37164821 -30.6171875 14.046875 C-30.03710872 8.69518044 -27.95877577 5.06871277 -24.0625 1.5 C-16.7000295 -4.2365916 -8.12538698 -4.69938426 0 0 Z " fill="#051523" transform="translate(688.375,539.1875)"/>
<path d="M0 0 C0.33 0.99 0.66 1.98 1 3 C-1.97 5.475 -1.97 5.475 -5 8 C-5.66 7.67 -6.32 7.34 -7 7 C-4.69 4.69 -2.38 2.38 0 0 Z " fill="#18ACF3" transform="translate(584,299)"/>
</svg>
